<svg xmlns="http://www.w3.org/2000/svg" xmlns:xlink="http://www.w3.org/1999/xlink" id="flag-icons-pt" viewBox="0 0 640 480">
  <path fill="red" d="M256 0h384v480H256z"/>
  <path fill="#060" d="M0 0h256v480H0z"/>
  <g fill="#ff0" fill-rule="evenodd" stroke="#000" stroke-linecap="round" stroke-linejoin="round" stroke-width=".6">
    <path d="M339.5 306.2c-32.3-1-180-93.2-181-108l8.1-13.5c14.7 21.3 165.7 111 180.6 107.8z"/>
    <path d="M164.9 182.8c-2.9 7.8 38.6 33.4 88.4 63.8s92.9 49 96 46.4l1.5-2.8q-.9 1.6-4.3.6c-13.5-3.9-48.6-20-92.1-46.4-43.6-26.4-81.4-50.7-87.3-61a6 6 0 0 1-.6-3.1h-.2l-1.2 2.2zm175.3 123.8q-.7 1.3-3.5.8c-12-1.3-48.6-19.1-91.9-45-50.4-30.2-92-57.6-87.4-64.8l1.2-2.2.2.1c-4 12.2 82.1 61.4 87.2 64.6 49.8 30.8 91.8 48.9 95.5 44.2z"/>
    <path d="M256.2 207.2c32.2-.3 72-4.4 95-13.6l-5-8c-13.5 7.5-53.5 12.5-90.3 13.2-43.4-.4-74.1-4.5-89.5-14.8l-4.6 8.6c28.2 12 57.2 14.5 94.4 14.6"/>
    <path d="M352.5 193.8c-.8 1.3-15.8 6.4-37.8 10.2a381 381 0 0 1-58.6 4.3 416 416 0 0 1-56.2-3.6c-23.1-3.6-35-8.6-39.5-10.4l1.1-2.2c12.7 5 24.7 8 38.7 10.2A412 412 0 0 0 256 206a392 392 0 0 0 58.3-4.3c22.5-3.7 34.8-8.4 36.6-10.5zm-4.4-8.1c-2.4 2-14.6 6.3-36 9.7a388 388 0 0 1-55.8 4c-22 0-40.1-1.6-53.8-3.6-21.8-2.8-33.4-8-37.6-9.4l1.3-2.2c3.3 1.7 14.4 6.2 36.5 9.3a385 385 0 0 0 53.6 3.4 384 384 0 0 0 55.4-4c21.5-3 33.1-8.4 34.9-9.8zM150.3 246c19.8 10.7 63.9 16 105.6 16.4 38 .1 87.4-5.8 105.9-15.6l-.5-10.7c-5.8 9-58.8 17.7-105.8 17.4s-90.7-7.6-105.3-17v9.5"/>
    <path d="M362.8 244.5v2.5c-2.8 3.4-20.2 8.4-42 12a434 434 0 0 1-65.4 4.4 400 400 0 0 1-62-4.3 155 155 0 0 1-44.4-12v-2.9c9.7 6.4 35.9 11.2 44.7 12.6 15.8 2.4 36.1 4.2 61.7 4.2 26.9 0 48.4-1.9 65-4.4 15.7-2.3 38-8.2 42.4-12.1m0-9v2.5c-2.8 3.3-20.2 8.3-42 11.9a434 434 0 0 1-65.4 4.5 414 414 0 0 1-62-4.3 155 155 0 0 1-44.4-12v-3c9.7 6.5 36 11.2 44.7 12.6a408 408 0 0 0 61.7 4.3c26.9 0 48.5-2 65-4.5 15.7-2.2 38-8.1 42.4-12m-107 68.8c-45.6-.2-84.7-12.4-93-14.4l6 9.4a250 250 0 0 0 87.4 14.3c34.7-1 65-3.7 86.3-14.1l6.2-9.8c-14.5 6.9-64 14.6-93 14.6"/>
    <path d="m344.9 297.3-2.8 4c-10 3.6-26 7.4-32.6 8.4a296 296 0 0 1-53.7 5c-40.4-.6-73.5-8.5-89-15.3l-1.3-2.1.2-.4 2.1.9a287 287 0 0 0 88.2 14.5c18.8 0 37.5-2.1 52.6-4.8 23.2-4.7 32.6-8.2 35.5-9.8l.7-.4zm5.3-8.8-2 3.5c-5.4 2-20 6.2-41.3 9.2-14 1.9-22.7 3.8-50.6 4.3a347 347 0 0 1-94.2-14L161 289a390 390 0 0 0 95.4 14c25.5-.5 36.4-2.4 50.3-4.3 24.8-3.8 37.3-8 41-9.1v-.2l2.6-1z"/>
    <path d="M350.8 237.6c.1 30-15.3 57-27.6 68.8a99 99 0 0 1-67.8 28.2c-30.3.5-58.8-19.2-66.5-27.9a101 101 0 0 1-27.5-67.4c1.8-32.8 14.7-55.6 33.3-71.3a100 100 0 0 1 64.2-22.7 98 98 0 0 1 71 35.6c12.5 15.2 18 31.7 20.9 56.7M255.6 135a106 106 0 0 1 106 105.2 105.6 105.6 0 1 1-211.4 0c-.1-58 47.3-105.2 105.4-105.2"/>
    <path d="M255.9 134.5c58.2 0 105.6 47.4 105.6 105.6S314.1 345.7 256 345.7s-105.6-47.4-105.6-105.6S197.8 134.5 256 134.5zM152.6 240c0 56.8 46.7 103.3 103.3 103.3S359.2 296.8 359.2 240s-46.7-103.3-103.3-103.3S152.6 183.2 152.6 240"/>
    <path d="M260.3 134h-9.1v212.3h9z"/>
    <path d="M259.3 132.8h2.3v214.7h-2.2V132.8zm-9 0h2.4v214.7h-2.3z"/>
  </g>
</svg>
